<?xml version="1.0" encoding="UTF-8" standalone="no"?>
<!-- Created with Inkscape (http://www.inkscape.org/) -->

<svg
   width="210mm"
   height="297mm"
   viewBox="0 0 210 297"
   version="1.1"
   id="svg1"
   inkscape:version="1.3.2 (1:1.3.2+202311252150+091e20ef0f)"
   sodipodi:docname="drawing.svg"
   xmlns:inkscape="http://www.inkscape.org/namespaces/inkscape"
   xmlns:sodipodi="http://sodipodi.sourceforge.net/DTD/sodipodi-0.dtd"
   xmlns="http://www.w3.org/2000/svg"
   xmlns:svg="http://www.w3.org/2000/svg">
  <sodipodi:namedview
     id="namedview1"
     pagecolor="#ffffff"
     bordercolor="#000000"
     borderopacity="0.25"
     inkscape:showpageshadow="2"
     inkscape:pageopacity="0.0"
     inkscape:pagecheckerboard="0"
     inkscape:deskcolor="#d1d1d1"
     inkscape:document-units="mm"
     inkscape:zoom="0.5028865"
     inkscape:cx="438.46872"
     inkscape:cy="995.25439"
     inkscape:window-width="2304"
     inkscape:window-height="1372"
     inkscape:window-x="0"
     inkscape:window-y="0"
     inkscape:window-maximized="1"
     inkscape:current-layer="layer1" />
  <defs
     id="defs1" />
  <g
     inkscape:label="Layer 1"
     inkscape:groupmode="layer"
     id="layer1">
    <path
       id="path1"
       style="fill:#d40000;stroke:#000000;stroke-width:1.13984"
       d="m 69.03835,178.72757 a 54.43008,54.43008 0 0 0 -54.429752,54.43027 54.43008,54.43008 0 0 0 54.429752,54.43027 54.43008,54.43008 0 0 0 54.43027,-54.43027 54.43008,54.43008 0 0 0 -54.43027,-54.43027 z m 0,5.28495 a 49.145557,49.145557 0 0 1 49.14584,49.14532 49.145557,49.145557 0 0 1 -49.14584,49.14584 49.145557,49.145557 0 0 1 -49.14532,-49.14584 49.145557,49.145557 0 0 1 49.14532,-49.14532 z" />
    <path
       id="path3"
       style="fill:#d40000;stroke:#000000;stroke-width:3.1031"
       d="M 117.61844,182.55409 A 48.584183,47.178356 0 0 0 69.236385,135.51665 48.584183,47.178356 0 0 0 20.47192,182.17943 l -4.844149,-0.0372 a 53.417934,51.896896 0 0 1 53.628254,-51.48471 53.417934,51.896896 0 0 1 53.206045,51.89657 z" />
    <path
       id="path3-9"
       style="fill:#d40000;stroke:#000000;stroke-width:3.1031"
       d="M 117.61844,206.48326 A 48.584183,47.178356 0 0 0 69.236381,159.44582 48.584183,47.178356 0 0 0 20.471927,206.10861 l -4.84415,-0.0372 a 53.417934,51.896896 0 0 1 53.628244,-51.48471 53.417934,51.896896 0 0 1 53.206049,51.89657 z" />
    <path
       id="path4"
       style="fill:#d40000;stroke:#000000;stroke-width:1.94969"
       d="m 9.8270227,178.12782 a 53.027493,52.949368 0 0 1 15.5034473,-37.51399 53.027493,52.949368 0 0 1 37.546548,-15.536 l -0.002,4.91753 a 48.206799,48.134483 0 0 0 -34.042436,14.11852 48.206799,48.134483 0 0 0 -14.089579,34.00464 z" />
    <path
       id="path4-7"
       style="fill:#d40000;stroke:#000000;stroke-width:1.94969"
       d="m 128.47862,177.87233 a 53.027493,52.949368 0 0 0 -15.50345,-37.51399 53.027493,52.949368 0 0 0 -37.546537,-15.536 l 0.002,4.91753 a 48.206799,48.134483 0 0 1 34.042427,14.11852 48.206799,48.134483 0 0 1 14.08958,34.00464 z" />
  </g>
</svg>
